<svg xmlns="http://www.w3.org/2000/svg" fill="none" viewBox="0 0 192 84" height="84" width="192">
<g clip-path="url(#clip0_1_200)">
<g clip-path="url(#clip1_1_200)">
<path fill="#26251E" d="M6.84054 42.1438C4.08387 42.6783 -1.42596 46.5774 0.866024 58.1736C9.76491 65.9545 15.8932 63.1314 17.7379 61.0141C16.8225 63.6695 17.4445 70.3882 28.6318 74.2035C39.8192 70.3882 40.4411 63.6695 39.5257 61.0141C41.367 63.1349 47.4988 65.9545 56.3977 58.1736C58.6862 46.5774 53.1763 42.6818 50.4231 42.1438C53.1798 41.6092 58.6896 37.71 56.3977 26.1139C47.4988 18.333 41.3705 21.1561 39.5257 23.2733C40.4411 20.618 39.8192 13.8993 28.6318 10.084C17.4445 13.8993 16.8225 20.618 17.7379 23.2733C15.8967 21.1526 9.76841 18.3295 0.869522 26.1139C-1.41897 37.71 4.09086 41.6092 6.84403 42.1438H6.84054ZM51.3944 28.9998C53.7912 33.147 53.1763 38.4298 49.92 41.9167C47.7329 35.729 44.0678 34.2686 41.0316 34.9813C43.1699 32.7068 43.7394 28.8042 39.4733 23.8149C44.1202 22.7388 49.0011 24.8491 51.3979 28.9963L51.3944 28.9998ZM37.5762 42.1438C38.8794 41.6756 41.6465 40.5471 40.7451 35.4146C43.659 36.3335 45.6785 39.0726 45.6785 42.1438C45.6785 45.2148 43.659 47.954 40.7451 48.8729C41.6465 43.7405 38.8759 42.6119 37.5762 42.1438ZM16.5116 48.8729C13.5977 47.954 11.5782 45.2148 11.5782 42.1438C11.5782 39.0726 13.5977 36.3335 16.5116 35.4146C15.6102 40.5471 18.3808 41.6756 19.6805 42.1438C18.3773 42.6119 15.6102 43.7405 16.5116 48.8729ZM24.1562 34.3944C23.0975 33.4999 20.7357 31.6656 16.7422 35.0128C16.0818 32.029 17.441 28.909 20.1033 27.3752C22.7656 25.8379 26.1442 26.2222 28.3978 28.2836C23.5028 30.0689 23.9081 33.0317 24.1562 34.3944ZM16.7422 49.2712C20.7357 52.6183 23.0975 50.784 24.1562 49.8896C23.9116 51.2522 23.5028 54.215 28.4012 56.0004C26.1477 58.0653 22.7656 58.4461 20.1068 56.9088C17.4445 55.3715 16.0853 52.255 16.7457 49.2712H16.7422ZM24.4147 49.4389C22.4652 49.9805 20.4492 49.0965 19.4814 47.4229C18.5171 45.7494 18.7581 43.5588 20.2011 42.1438C18.7581 40.7287 18.5136 38.5381 19.4814 36.8645C20.4492 35.191 22.4652 34.307 24.4147 34.8486C24.9179 32.8885 26.6962 31.5853 28.6283 31.5853C30.5605 31.5853 32.3353 32.892 32.842 34.8486C34.7915 34.307 36.8075 35.191 37.7753 36.8645C38.7396 38.5381 38.4985 40.7287 37.0556 42.1438C38.4985 43.5588 38.7431 45.7494 37.7753 47.4229C36.8075 49.0965 34.7915 49.9805 32.842 49.4389C32.3388 51.399 30.5605 52.7022 28.6283 52.7022C26.6962 52.7022 24.9213 51.3955 24.4147 49.4389ZM28.8589 28.2836C31.1125 26.2187 34.4946 25.8379 37.1534 27.3752C39.8157 28.9125 41.1749 32.029 40.5145 35.0128C36.521 31.6656 34.1592 33.4999 33.1005 34.3944C33.3451 33.0317 33.7539 30.0689 28.8554 28.2836H28.8589ZM33.1005 49.8896C34.1592 50.784 36.521 52.6183 40.5145 49.2712C41.1749 52.255 39.8157 55.375 37.1534 56.9088C34.4911 58.4461 31.1125 58.0618 28.8589 56.0004C33.7539 54.215 33.3451 51.2522 33.1005 49.8896ZM28.6283 15.8524C33.4185 15.8524 37.688 19.0248 39.0785 23.5878C32.6253 22.3894 29.5298 24.8316 28.6283 27.8189C27.7269 24.8316 24.6314 22.3859 18.1782 23.5878C19.5687 19.0248 23.8382 15.8524 28.6283 15.8524ZM7.33667 41.9132C4.08038 38.4263 3.46547 33.1435 5.86226 28.9963C8.25905 24.8491 13.14 22.7388 17.7869 23.8149C13.5208 28.8042 14.0903 32.7068 16.2286 34.9813C13.1889 34.2651 9.52733 35.7255 7.34016 41.9167L7.33667 41.9132ZM7.33667 42.3674C9.52384 48.555 13.1889 50.0154 16.2251 49.2992C14.0868 51.5737 13.5208 55.4763 17.7869 60.4656C13.14 61.5417 8.25905 59.4314 5.86226 55.2842C3.46547 51.1369 4.08038 45.8542 7.33667 42.3674ZM28.6283 68.4281C23.8382 68.4281 19.5687 65.2557 18.1782 60.6927C24.6314 61.8946 27.7269 59.4489 28.6283 56.4616C29.5298 59.4489 32.6253 61.8946 39.0785 60.6927C37.688 65.2557 33.4185 68.4281 28.6283 68.4281ZM51.3944 55.2842C48.9976 59.4314 44.1167 61.5417 39.4698 60.4656C43.7359 55.4763 43.1699 51.5737 41.0316 49.2992C44.0713 50.0154 47.7329 48.555 49.92 42.3674C53.1763 45.8542 53.7912 51.1369 51.3944 55.2842ZM32.842 44.572V39.7085L28.6283 37.2768L24.4147 39.7085V44.572L28.6283 47.0037L32.842 44.572Z"></path>
<path fill="#26251E" d="M94.1 30.8445L94.065 30.558H86.8711L86.8362 30.8445C88.1324 31.4874 88.5971 32.2735 88.5971 34.0135V50.3718C88.5971 52.1118 88.1324 52.8979 86.8362 53.5408L86.8711 53.8273H94.065L94.1 53.5408C92.8247 52.8979 92.339 52.1118 92.339 50.3718V34.0135C92.339 32.2735 92.8282 31.4874 94.1 30.8445Z"></path>
<path fill="#26251E" d="M111.947 50.5954H104.743V43.115H110.326C111.846 43.115 112.709 43.5901 113.341 44.5544L113.627 44.523V38.5485L113.341 38.5135C112.709 39.4778 111.846 39.932 110.326 39.932H104.743V33.7933H111.203C113.397 33.7933 114.983 34.3698 116.29 35.722L116.576 35.5996L115.259 30.558H99.3655L99.3306 30.8445C100.55 31.4874 101.004 32.2735 101.004 34.0135V50.3718C101.004 52.1118 100.55 52.8979 99.3306 53.5408L99.3655 53.8273H116.035L117.321 48.6074L117.065 48.4851C115.647 49.9351 114.061 50.5919 111.943 50.5919L111.947 50.5954Z"></path>
<path fill="#26251E" d="M189.815 50.5395L182.146 30.558H175.927L175.892 30.8899C177.311 31.5537 177.677 32.5739 177.076 34.1497L170.693 50.5395C170.05 52.1572 169.453 52.9014 168.412 53.5443L168.422 53.8308H175.26L175.294 53.5443C174.096 52.9363 173.855 52.2375 174.442 50.6618L175.385 48.1113H184.962L185.937 50.6618C186.524 52.2341 186.279 52.9328 185.095 53.5443L185.13 53.8308H192.079L192.089 53.5443C191.048 52.9014 190.451 52.1572 189.818 50.5395H189.815ZM176.615 44.8305L180.172 35.3446L183.728 44.8305H176.612H176.615Z"></path>
<path fill="#26251E" d="M75.4537 40.3198L73.1931 39.7119C70.9326 39.1144 69.0913 38.5484 69.0913 36.508C69.0913 34.5794 70.7299 33.4369 73.1687 33.4369C75.6074 33.4369 78.0461 34.4221 80.1948 36.7735L80.4953 36.6512L79.5205 30.8549L79.3004 30.82C79.0349 31.0191 78.7449 31.1099 78.4234 31.1099C77.3264 31.1099 75.7541 30.2015 73.1267 30.2015C68.4379 30.2015 65.3004 32.773 65.3004 36.9168C65.3004 40.5399 67.7392 42.5349 71.3169 43.3909L73.6124 43.9779C75.817 44.5194 77.9238 45.365 77.9238 47.5242C77.9238 49.4633 76.2293 50.7701 73.5809 50.7701C70.9326 50.7701 67.83 49.6835 65.2341 46.9023L64.9336 47.0246L65.6184 49.9245C65.9713 51.2487 66.3137 52.7022 67.8475 53.1634C69.4582 53.67 71.3029 54.1277 73.6543 54.1277C78.7868 54.1277 81.8335 51.3885 81.8335 47.1574C81.8335 42.9262 79.0174 41.2597 75.4502 40.3198H75.4537Z"></path>
<path fill="#26251E" d="M162.874 48.6458L159.981 44.184C163.059 43.3385 165.134 40.7006 165.134 37.4758C165.134 33.5067 161.941 30.5614 157.598 30.5614H146.372L146.337 30.8479C147.557 31.4908 148.011 32.2769 148.011 34.0168V50.3753C148.011 52.1153 147.557 52.9014 146.337 53.5443L146.372 53.8307H153.321L153.356 53.5443C152.203 52.9014 151.749 52.1153 151.749 50.3753V44.5124H155.851L160.582 51.8148C161.322 52.9573 163.017 54.9034 167.164 53.8342L167.199 53.5477C165.735 52.5834 164.834 51.6715 162.874 48.6493V48.6458ZM157.409 41.2422H151.746V33.8072H157.409C159.614 33.8072 161.277 35.4249 161.277 37.5072C161.277 39.5896 159.614 41.2422 157.409 41.2422Z"></path>
<path fill="#26251E" d="M138.427 48.6458L135.534 44.184C138.612 43.3385 140.687 40.7006 140.687 37.4758C140.687 33.5067 137.494 30.5614 133.151 30.5614H121.925L121.89 30.8479C123.11 31.4908 123.564 32.2769 123.564 34.0168V50.3753C123.564 52.1153 123.11 52.9014 121.89 53.5443L121.925 53.8307H128.875L128.91 53.5443C127.757 52.9014 127.302 52.1153 127.302 50.3753V44.5124H131.404L136.135 51.8148C137.997 54.6902 141.875 54.2465 143.315 53.8342L143.35 53.5443C141.068 52.4577 139.814 50.7876 138.427 48.6458ZM132.962 41.2422H127.299V33.8072H132.962C135.167 33.8072 136.83 35.4249 136.83 37.5072C136.83 39.5896 135.167 41.2422 132.962 41.2422Z"></path>
</g>
</g>
<defs>
<clipPath id="clip0_1_200">
<rect fill="white" height="84" width="192"></rect>
</clipPath>
<clipPath id="clip1_1_200">
<rect transform="translate(0 10)" fill="white" height="64.2873" width="192.163"></rect>
</clipPath>
</defs>
</svg>
