<svg xmlns="http://www.w3.org/2000/svg" fill="none" viewBox="0 0 232 84" height="84" width="232">
<g clip-path="url(#clip0_1_61)">
<path fill="#26251E" d="M5.25443 35.1593C5.25443 31.5293 3.42443 28.5293 0.00442886 26.0093H7.95443C10.7444 28.1693 12.4544 31.4693 12.4544 35.1593C12.4544 38.8493 10.7444 42.1493 7.95443 44.3093C10.5344 45.3893 12.0044 48.0293 12.0044 51.8093V59.0093H4.80443V51.8093C4.80443 48.2093 3.09443 45.6893 0.00442886 44.3093C3.42443 41.7893 5.25443 38.7893 5.25443 35.1593ZM20.8544 35.1593C20.8544 31.5293 19.0244 28.5293 15.6044 26.0093H23.5544C26.3444 28.1693 28.0544 31.4693 28.0544 35.1593C28.0544 38.8493 26.3444 42.1493 23.5544 44.3093C26.1344 45.3893 27.6044 48.0293 27.6044 51.8093V59.0093H20.4044V51.8093C20.4044 48.2093 18.6944 45.6893 15.6044 44.3093C19.0244 41.7893 20.8544 38.7893 20.8544 35.1593ZM36.4544 35.1593C36.4544 31.5293 34.6244 28.5293 31.2044 26.0093H39.1544C41.9444 28.1693 43.6544 31.4693 43.6544 35.1593C43.6544 38.8493 41.9444 42.1493 39.1544 44.3093C41.7344 45.3893 43.2044 48.0293 43.2044 51.8093V59.0093H36.0044V51.8093C36.0044 48.2093 34.2944 45.6893 31.2044 44.3093C34.6244 41.7893 36.4544 38.7893 36.4544 35.1593ZM65.5844 53.0093H60.1244V32.0093H73.5344C79.9844 32.0093 83.1644 34.4093 83.1644 38.3393C83.1644 41.0093 81.6044 43.0193 78.6944 44.0393C81.6944 44.4893 83.0444 46.0793 83.0444 48.9293V53.0093H77.5244V49.1693C77.5244 46.7693 76.3244 45.8093 73.1744 45.8093H65.5844V53.0093ZM73.2344 35.0693H65.5844V42.7493H73.1744C75.9344 42.7493 77.6444 41.2193 77.6444 38.8193C77.6444 36.4493 76.0544 35.0693 73.2344 35.0693ZM87.1844 32.0093H92.6444V53.0093H87.1844V32.0093ZM109.384 46.1693H102.724V53.0093H97.2644V32.0093H109.504C115.954 32.0093 119.344 34.7093 119.344 39.0293C119.344 43.4993 115.894 46.1693 109.384 46.1693ZM109.264 35.0693H102.724V43.1093H109.204C112.024 43.1093 113.764 41.6693 113.764 39.0593C113.764 36.5093 112.024 35.0693 109.264 35.0693ZM134.704 46.1693H128.044V53.0093H122.584V32.0093H134.824C141.274 32.0093 144.664 34.7093 144.664 39.0293C144.664 43.4993 141.214 46.1693 134.704 46.1693ZM134.584 35.0693H128.044V43.1093H134.524C137.344 43.1093 139.084 41.6693 139.084 39.0593C139.084 36.5093 137.344 35.0693 134.584 35.0693ZM153.364 32.0093V49.8893H166.984V53.0093H147.904V32.0093H153.364ZM170.404 32.0093H175.864V53.0093H170.404V32.0093ZM184.084 39.0293V53.0093H180.484V32.0093H184.564L199.444 45.9893V32.0093H203.044V53.0093H198.964L184.084 39.0293ZM220.864 34.4693C215.674 34.4693 212.284 37.7693 212.284 42.6893C212.284 47.5493 215.524 50.5493 220.564 50.5493H220.924C222.634 50.5493 224.554 50.1893 226.324 49.6193V43.9493H217.504V40.9493H231.664V50.8193C228.724 52.3493 224.284 53.5493 220.684 53.5493H220.204C211.924 53.5493 206.584 49.1693 206.584 42.8093C206.584 36.5093 212.074 31.4693 220.504 31.4693H220.984C224.494 31.4693 228.514 32.5793 231.484 34.3193L229.924 36.8693C227.254 35.3993 224.074 34.4693 221.224 34.4693H220.864Z"></path>
</g>
<defs>
<clipPath id="clip0_1_61">
<rect transform="translate(0 26)" fill="white" height="33" width="231.66"></rect>
</clipPath>
</defs>
</svg>
