<svg xmlns="http://www.w3.org/2000/svg" fill="none" viewBox="0 0 208 84" height="84" width="208">
<g clip-path="url(#clip0_39_2306)">
<path fill="#26251E" d="M54.432 40.5174C51.3181 39.6985 50.007 39.2072 50.007 37.4058C50.007 36.0956 51.1542 35.113 53.2028 35.113C55.3334 35.113 56.5625 36.0137 57.5459 37.242L60.0861 35.113C58.4473 32.984 56.3167 31.8376 53.1209 31.8376C49.1056 31.8376 46.4834 34.1304 46.4834 37.4876C46.4834 41.0905 48.8597 42.6463 52.875 43.7108C56.3986 44.6934 57.7917 45.4304 57.7917 47.2318C57.7917 48.8695 56.3167 49.934 53.6945 49.934C50.9903 49.934 48.9417 48.7058 47.7125 46.6587L45.0084 48.542C46.8931 51.4079 49.8431 53.1275 53.6945 53.1275C58.5292 53.1275 61.3973 50.8347 61.3973 46.9862C61.4792 43.3833 58.775 41.6637 54.432 40.5174Z"></path>
<path fill="#26251E" d="M82.2111 35.9319C80.8181 33.3935 78.3597 32.0015 75.082 32.0015C69.4278 32.0015 65.1667 36.587 65.1667 42.6464C65.1667 48.7058 69.4278 53.2913 75.082 53.2913C78.4417 53.2913 80.8181 51.8993 82.2111 49.3609V52.8H85.9806V32.4109H82.2111V35.9319ZM75.8195 49.9341C71.8042 49.9341 69.182 46.9044 69.182 42.6464C69.182 38.3065 71.8042 35.2768 75.8195 35.2768C79.7528 35.2768 82.375 38.3065 82.375 42.6464C82.375 46.9044 79.7528 49.9341 75.8195 49.9341Z"></path>
<path fill="#26251E" d="M115.399 31.9194C112.121 31.9194 109.826 33.1477 108.269 35.6861C107.04 33.1477 104.91 31.9194 102.124 31.9194C99.3375 31.9194 97.207 33.0658 96.0598 35.1948V32.4107H92.2903V52.718H96.0598V41.0904C96.0598 37.4057 97.9445 35.3586 101.304 35.3586C104.172 35.3586 105.647 37.0781 105.647 40.2716V52.718H109.417V40.9267C109.417 37.3238 111.301 35.2767 114.661 35.2767C117.529 35.2767 119.004 36.9144 119.004 40.1078V52.6361H122.774V39.7803C122.692 34.8673 119.66 31.9194 115.399 31.9194Z"></path>
<path fill="#26251E" d="M136.294 40.5174C133.181 39.6985 131.869 39.2072 131.869 37.4058C131.869 36.0956 133.017 35.113 135.065 35.113C137.196 35.113 138.425 36.0137 139.408 37.242L141.949 35.113C140.31 32.984 138.179 31.8376 134.983 31.8376C130.968 31.8376 128.346 34.1304 128.346 37.4876C128.346 41.0905 130.722 42.6463 134.738 43.7108C138.261 44.6934 139.654 45.4304 139.654 47.2318C139.654 48.8695 138.179 49.934 135.557 49.934C132.853 49.934 130.804 48.7058 129.575 46.6587L126.871 48.542C128.756 51.4079 131.706 53.1275 135.557 53.1275C140.392 53.1275 143.26 50.8347 143.26 46.9862C143.342 43.3833 140.638 41.6637 136.294 40.5174Z"></path>
<path fill="#26251E" d="M164.074 35.9319C162.681 33.3935 160.222 32.0015 156.944 32.0015C151.29 32.0015 147.029 36.587 147.029 42.6464C147.029 48.7058 151.29 53.2913 156.944 53.2913C160.304 53.2913 162.681 51.8993 164.074 49.3609V52.8H167.843V32.4109H164.074V35.9319ZM157.6 49.9341C153.585 49.9341 150.963 46.9044 150.963 42.6464C150.963 38.3065 153.585 35.2768 157.6 35.2768C161.533 35.2768 164.156 38.3065 164.156 42.6464C164.156 46.9044 161.615 49.9341 157.6 49.9341Z"></path>
<path fill="#26251E" d="M204.718 32.4107V35.8499C203.325 33.3115 200.867 31.9194 197.589 31.9194C191.935 31.9194 187.674 36.5049 187.674 42.5644C187.674 48.6238 191.935 53.2093 197.589 53.2093C200.949 53.2093 203.325 51.8173 204.718 49.2789V52.718H208.488V32.4107H204.718ZM198.326 49.9339C194.311 49.9339 191.689 46.9042 191.689 42.6462C191.689 38.3064 194.311 35.2767 198.326 35.2767C202.26 35.2767 204.882 38.3064 204.882 42.6462C204.882 46.9042 202.26 49.9339 198.326 49.9339Z"></path>
<path fill="#26251E" d="M183.74 31.9194L177.84 37.16V32.4107H174.153V52.718H177.84V42.1549L186.199 34.7854L183.74 31.9194Z"></path>
<path fill="#26251E" d="M21.4083 21.6021C20.5069 21.6021 19.5236 21.7658 18.5403 22.0934C18.1306 22.2571 17.6389 22.2571 17.2292 22.0934C16.2458 21.7658 15.3444 21.6021 14.3611 21.6021C8.95277 21.6021 4.44583 27.0064 4.44583 33.3115C4.44583 40.3535 9.85416 46.6586 17.6389 48.5419C17.8028 48.5419 17.9667 48.5419 18.1306 48.5419C25.9153 46.6586 31.3236 40.4354 31.3236 33.3115C31.3236 26.9245 26.7347 21.6021 21.4083 21.6021ZM27.6361 32.6564C27.2264 33.639 26.5708 34.376 25.6694 34.8673C24.9319 35.3586 24.0305 35.6042 23.1292 35.6042C22.7194 35.6042 22.3917 35.2767 22.3917 34.9492C22.3917 34.5397 22.7194 34.2122 23.0472 34.2122C23.7028 34.2122 24.2764 33.9665 24.85 33.639C25.5056 33.2296 25.9153 32.7383 26.2431 32.0013C26.4069 31.5919 26.4069 31.1006 26.1611 30.7731C25.9153 30.3636 25.5056 30.1999 25.0958 30.118C24.1125 30.0361 23.375 30.3636 22.7194 30.9368C21.7361 31.9194 21.3264 33.7209 21.1625 34.4578C20.9986 35.1129 19.3597 42.0731 18.7042 44.939C18.6222 45.3484 18.2125 45.676 17.7208 45.676C17.2292 45.676 16.9014 45.3484 16.7375 44.939L16.4917 43.8745C15.7542 40.681 14.3611 35.031 14.2792 34.4578C14.1153 33.7209 13.7056 31.9194 12.7222 30.9368C12.1486 30.3636 11.3292 30.0361 10.3458 30.118C9.93611 30.118 9.52638 30.3636 9.28055 30.7731C9.03472 31.1825 9.03472 31.5919 9.19861 32.0013C9.52639 32.6564 10.0181 33.2296 10.5917 33.639C11.1653 33.9665 11.7389 34.1303 12.3944 34.2122C12.8042 34.2122 13.05 34.5397 13.05 34.9492C13.05 35.3586 12.7222 35.6042 12.3125 35.6042C11.4111 35.6042 10.5917 35.2767 9.77222 34.8673C8.95278 34.2941 8.29722 33.5571 7.80555 32.6564C7.47777 31.8376 7.47778 30.8549 7.96944 30.118C8.46111 29.381 9.28055 28.8897 10.1 28.8078C11.4111 28.726 12.6403 29.1354 13.5417 30.0361C14.8528 31.3463 15.2625 33.3934 15.5083 34.2122C15.6722 34.7854 16.8194 39.6984 17.5569 42.9738C18.2944 39.6984 19.5236 34.7854 19.6056 34.2122C19.7694 33.3115 20.2611 31.2644 21.5722 30.0361C22.4736 29.1354 23.6208 28.726 25.0139 28.8078C25.9153 28.8897 26.7347 29.381 27.1444 30.118C27.9639 30.8549 27.9639 31.8376 27.6361 32.6564Z"></path>
<path fill="#26251E" d="M17.8847 16.6072C8.29724 16.6072 0.512512 24.3862 0.512512 33.9666V48.9514C0.512512 58.5318 8.29724 66.3108 17.8847 66.3108C27.4722 66.3108 35.257 58.5318 35.257 48.9514V33.9666C35.257 24.3862 27.4722 16.6072 17.8847 16.6072ZM5.26529 52.3905C5.26529 52.7999 4.93751 53.1275 4.52779 53.1275C4.11807 53.1275 3.79029 52.7999 3.79029 52.3905V51.4079C3.79029 50.9985 4.11807 50.6709 4.52779 50.6709C4.93751 50.6709 5.26529 50.9985 5.26529 51.4079V52.3905ZM5.26529 47.9688C5.26529 48.3782 4.93751 48.7057 4.52779 48.7057C4.11807 48.7057 3.79029 48.3782 3.79029 47.9688V46.9862C3.79029 46.5767 4.11807 46.2492 4.52779 46.2492C4.93751 46.2492 5.26529 46.5767 5.26529 46.9862V47.9688ZM9.69029 59.0231C9.69029 59.4325 9.36251 59.7601 8.95279 59.7601C8.54307 59.7601 8.21529 59.4325 8.21529 59.0231V58.0405C8.21529 57.6311 8.54307 57.3036 8.95279 57.3036C9.36251 57.3036 9.69029 57.6311 9.69029 58.0405V59.0231ZM9.69029 54.6014C9.69029 55.0108 9.36251 55.3383 8.95279 55.3383C8.54307 55.3383 8.21529 55.0108 8.21529 54.6014V53.6188C8.21529 53.2094 8.54307 52.8818 8.95279 52.8818C9.36251 52.8818 9.69029 53.2094 9.69029 53.6188V54.6014ZM14.1153 61.234C14.1153 61.6434 13.7875 61.9709 13.3778 61.9709C12.9681 61.9709 12.6403 61.6434 12.6403 61.234V60.2514C12.6403 59.842 12.9681 59.5144 13.3778 59.5144C13.7875 59.5144 14.1153 59.842 14.1153 60.2514V61.234ZM14.1153 56.8122C14.1153 57.2217 13.7875 57.5492 13.3778 57.5492C12.9681 57.5492 12.6403 57.2217 12.6403 56.8122V55.8296C12.6403 55.4202 12.9681 55.0927 13.3778 55.0927C13.7875 55.0927 14.1153 55.4202 14.1153 55.8296V56.8122ZM18.5403 59.0231C18.5403 59.4325 18.2125 59.7601 17.8028 59.7601C17.3931 59.7601 17.0653 59.4325 17.0653 59.0231V58.0405C17.0653 57.6311 17.3931 57.3036 17.8028 57.3036C18.2125 57.3036 18.5403 57.6311 18.5403 58.0405V59.0231ZM18.5403 54.6014C18.5403 55.0108 18.2125 55.3383 17.8028 55.3383C17.3931 55.3383 17.0653 55.0108 17.0653 54.6014V53.6188C17.0653 53.2094 17.3931 52.8818 17.8028 52.8818C18.2125 52.8818 18.5403 53.2094 18.5403 53.6188V54.6014ZM23.0472 61.234C23.0472 61.6434 22.7195 61.9709 22.3097 61.9709C21.9 61.9709 21.5722 61.6434 21.5722 61.234V60.2514C21.5722 59.842 21.9 59.5144 22.3097 59.5144C22.7195 59.5144 23.0472 59.842 23.0472 60.2514V61.234ZM23.0472 56.8122C23.0472 57.2217 22.7195 57.5492 22.3097 57.5492C21.9 57.5492 21.5722 57.2217 21.5722 56.8122V55.8296C21.5722 55.4202 21.9 55.0927 22.3097 55.0927C22.7195 55.0927 23.0472 55.4202 23.0472 55.8296V56.8122ZM27.4722 59.0231C27.4722 59.4325 27.1445 59.7601 26.7347 59.7601C26.325 59.7601 25.9972 59.4325 25.9972 59.0231V58.0405C25.9972 57.6311 26.325 57.3036 26.7347 57.3036C27.1445 57.3036 27.4722 57.6311 27.4722 58.0405V59.0231ZM27.4722 54.6014C27.4722 55.0108 27.1445 55.3383 26.7347 55.3383C26.325 55.3383 25.9972 55.0108 25.9972 54.6014V53.6188C25.9972 53.2094 26.325 52.8818 26.7347 52.8818C27.1445 52.8818 27.4722 53.2094 27.4722 53.6188V54.6014ZM31.8972 52.3905C31.8972 52.7999 31.5695 53.1275 31.1597 53.1275C30.75 53.1275 30.4222 52.7999 30.4222 52.3905V51.4079C30.4222 50.9985 30.75 50.6709 31.1597 50.6709C31.5695 50.6709 31.8972 50.9985 31.8972 51.4079V52.3905ZM31.8972 47.9688C31.8972 48.3782 31.5695 48.7057 31.1597 48.7057C30.75 48.7057 30.4222 48.3782 30.4222 47.9688V46.9862C30.4222 46.5767 30.75 46.2492 31.1597 46.2492C31.5695 46.2492 31.8972 46.5767 31.8972 46.9862V47.9688ZM18.4583 49.8521C18.2945 49.934 18.0486 49.934 17.8847 49.934C17.7208 49.934 17.475 49.934 17.3111 49.8521C8.95279 47.8869 3.05279 41.0905 3.05279 33.3115C3.05279 26.1876 8.21529 20.2101 14.3611 20.2101C15.4264 20.2101 16.5736 20.3738 17.6389 20.7833C17.8028 20.8652 17.9667 20.8652 18.0486 20.7833C19.1139 20.4557 20.2611 20.2101 21.3264 20.2101C27.4722 20.2101 32.6347 26.1876 32.6347 33.3115C32.7167 41.0905 26.8167 47.8869 18.4583 49.8521Z"></path>
</g>
<defs>
<clipPath id="clip0_39_2306">
<rect fill="white" height="84" width="208"></rect>
</clipPath>
</defs>
</svg>
