<svg xmlns="http://www.w3.org/2000/svg" fill="none" viewBox="0 0 201 84" height="84" width="201">
<g clip-path="url(#clip0_31_1967)">
<path fill="#26251E" d="M29.1802 22.2734C28.7629 21.5844 28.1736 21.0144 27.4696 20.6187C26.7656 20.2231 25.9707 20.0151 25.1622 20.0151C24.3536 20.0151 23.5587 20.2231 22.8547 20.6187C22.1507 21.0144 21.5614 21.5844 21.1441 22.2734L14.5345 33.5358C19.584 36.0437 23.8862 39.8221 27.014 44.4957C30.1418 49.1693 31.9863 54.5755 32.3645 60.1776H27.7236C27.3462 55.3756 25.7149 50.7548 22.9911 46.7726C20.2673 42.7904 16.5455 39.5848 12.194 37.4731L6.07657 47.9959C8.52287 49.0874 10.6541 50.7732 12.2742 52.8983C13.8943 55.0235 14.9514 57.5197 15.3482 60.1576H4.69036C4.56396 60.1487 4.44178 60.1086 4.33482 60.041C4.22787 59.9734 4.13951 59.8804 4.07772 59.7704C4.01593 59.6603 3.98265 59.5367 3.98088 59.4106C3.9791 59.2846 4.00889 59.1601 4.06757 59.0484L7.02081 54.0518C6.02026 53.2213 4.87675 52.578 3.64567 52.1531L0.722566 57.1497C0.418255 57.6689 0.220699 58.2432 0.141374 58.8391C0.0620485 59.4349 0.102535 60.0405 0.260482 60.6207C0.418428 61.2009 0.690686 61.7441 1.06144 62.2187C1.43219 62.6933 1.89405 63.0899 2.42018 63.3854C3.11338 63.774 3.89471 63.9803 4.69036 63.985H19.2858C19.5569 60.6573 18.9595 57.3164 17.5517 54.2858C16.1438 51.2552 13.9731 48.6377 11.2498 46.6868L13.5702 42.6895C17.007 45.0378 19.7689 48.2371 21.5834 51.9717C23.3978 55.7062 24.202 59.8468 23.9166 63.985H36.282C36.57 57.7162 35.1991 51.4821 32.3065 45.9056C29.4139 40.329 25.1007 35.6053 19.7981 32.2067L24.4891 24.2121C24.5937 24.0379 24.7631 23.9118 24.9607 23.8612C25.1582 23.8107 25.3678 23.8398 25.5439 23.9423C26.0763 24.2321 45.9253 58.6886 46.2969 59.0883C46.3624 59.2051 46.3957 59.3371 46.3935 59.4708C46.3913 59.6045 46.3536 59.7353 46.2843 59.8498C46.215 59.9644 46.1165 60.0588 45.9988 60.1233C45.881 60.1879 45.7483 60.2204 45.6139 60.2176H40.8324C40.8927 61.49 40.8927 62.7592 40.8324 64.025H45.634C46.2437 64.0289 46.8481 63.9126 47.4123 63.6826C47.9765 63.4526 48.4892 63.1136 48.9208 62.6851C49.3524 62.2567 49.6943 61.7473 49.9267 61.1865C50.1591 60.6257 50.2774 60.0247 50.2748 59.4181C50.2754 58.6169 50.0603 57.8302 49.652 57.1397L29.1802 22.2734ZM124.93 48.2757L110.103 29.2287H106.406V54.7613H110.153V35.1946L125.402 54.7613H128.676V29.2287H124.93V48.2757ZM87.5921 43.5389H100.882V40.2212H87.5821V32.5364H102.579V29.2187H83.7649V54.7613H102.77V51.4435H87.5821L87.5921 43.5389ZM71.962 40.3011C66.7888 39.062 65.3423 38.0827 65.3423 35.7043C65.3423 33.5657 67.2408 32.1167 70.0736 32.1167C72.6532 32.1919 75.1414 33.0847 77.1754 34.665L79.1844 31.8369C76.6094 29.8288 73.415 28.7695 70.1439 28.839C65.0611 28.839 61.5152 31.8369 61.5152 36.104C61.5152 40.7009 64.5287 42.2898 70.0133 43.6189C74.8952 44.7381 76.3919 45.7774 76.3919 48.1058C76.3919 50.4342 74.3829 51.8732 71.279 51.8732C68.1888 51.8592 65.2154 50.6973 62.9416 48.6155L60.6814 51.3036C63.5938 53.7932 67.3085 55.1586 71.1484 55.151C76.6531 55.151 80.1889 52.203 80.1889 47.6461C80.1588 43.7888 77.8685 41.7202 71.962 40.3011ZM196.631 29.2287L188.906 41.2205L181.232 29.2287H176.752L186.887 44.6682V54.7713H190.745V44.5482L200.95 29.2287H196.631ZM131.71 32.6863H140.118V54.7713H143.975V32.6863H152.383V29.2287H131.72L131.71 32.6863ZM170.223 44.7981C174.1 43.7288 176.25 41.0306 176.25 37.1733C176.25 32.2666 172.644 29.1787 166.827 29.1787H155.416V54.7513H159.233V45.5775H165.712L172.222 54.7713H176.682L169.65 44.958L170.223 44.7981ZM159.223 42.2998V32.6064H166.426C170.182 32.6064 172.332 34.3752 172.332 37.4431C172.332 40.511 170.032 42.2998 166.466 42.2998H159.223Z"></path>
</g>
<defs>
<clipPath id="clip0_31_1967">
<rect fill="white" height="84" width="201"></rect>
</clipPath>
</defs>
</svg>
