<svg xmlns="http://www.w3.org/2000/svg" fill="none" viewBox="0 0 192 84" height="84" width="192">
<g clip-path="url(#clip0_39_2214)">
<path fill="#26251E" d="M77.0235 45.1744L73.7191 36.1395C73.5733 35.7488 73.0387 35.7488 72.9415 36.1395L69.5885 45.1744C69.4913 45.4674 69.6856 45.7604 69.9772 45.7604H76.6834C76.9263 45.7604 77.1693 45.4674 77.0235 45.1744ZM78.5786 50.2534H68.0334C67.839 50.2534 67.6932 50.3511 67.6446 50.5465L65.555 56.1627C65.5064 56.3092 65.3121 56.4558 65.1663 56.4558H60.5983C60.3068 56.4558 60.1124 56.1627 60.2096 55.8697L70.7547 29.4488C70.8033 29.3023 70.9977 29.2046 71.1435 29.2046H75.5171C75.7115 29.2046 75.8572 29.3023 75.9058 29.4488L86.451 55.8697C86.5482 56.1627 86.3538 56.4558 86.0623 56.4558H81.4943C81.2999 56.4558 81.1541 56.3581 81.1055 56.1627L79.0159 50.5465C78.9188 50.3999 78.773 50.2534 78.5786 50.2534ZM88.5892 38.4837H92.5254C92.7684 38.4837 92.9628 38.679 92.9628 38.9232V56.0651C92.9628 56.3092 92.7684 56.5046 92.5254 56.5046H88.5892C88.3462 56.5046 88.1519 56.3092 88.1519 56.0651V38.8744C88.1519 38.679 88.3462 38.4837 88.5892 38.4837ZM107.201 42.6348C107.201 42.879 107.007 43.0744 106.764 43.0744H106.667C104.723 43.0744 103.314 43.5627 102.39 44.4906C101.467 45.4185 101.03 46.9813 101.03 49.1302V56.0651C101.03 56.3092 100.835 56.5046 100.592 56.5046H96.7046C96.4617 56.5046 96.2673 56.3092 96.2673 56.0651V38.8744C96.2673 38.6302 96.4617 38.4348 96.7046 38.4348H100.544C100.787 38.4348 100.981 38.6302 100.981 38.8744V42.2441H101.078C101.564 40.8278 102.293 39.7534 103.265 39.0209C104.285 38.2883 105.5 37.8976 107.007 37.8976H107.201V42.6348ZM117.941 42.4883C117.698 42.4883 117.503 42.6837 117.503 42.9278V50.0581C117.503 50.7906 117.649 51.3278 117.941 51.6209C118.232 51.9139 118.718 52.1092 119.399 52.1092H119.787C120.03 52.1092 120.225 52.3046 120.225 52.5488V56.1139C120.225 56.3581 120.03 56.5534 119.787 56.5534H118.135C116.386 56.5534 115.074 56.1139 114.15 55.2348C113.227 54.3558 112.741 52.9883 112.741 51.2302V42.9278C112.741 42.6837 112.547 42.4883 112.304 42.4883H109.874C109.631 42.4883 109.437 42.293 109.437 42.0488V38.8744C109.437 38.6302 109.631 38.4348 109.874 38.4348H112.304C112.547 38.4348 112.741 38.2395 112.741 37.9953V31.6465C112.741 31.4023 112.935 31.2069 113.178 31.2069H117.115C117.358 31.2069 117.552 31.4023 117.552 31.6465V37.9953C117.552 38.2395 117.746 38.4348 117.989 38.4348H120.808C121.051 38.4348 121.245 38.6302 121.245 38.8744V42.0488C121.245 42.293 121.051 42.4883 120.808 42.4883H117.941ZM135.872 51.1325C136.747 50.2046 137.185 48.9837 137.185 47.4697C137.185 45.9558 136.747 44.7348 135.872 43.8069C134.998 42.879 133.831 42.3906 132.374 42.3906C130.916 42.3906 129.749 42.879 128.875 43.8069C128 44.7348 127.563 45.9558 127.563 47.4697C127.563 48.9837 128 50.2046 128.875 51.1325C129.749 52.0604 130.916 52.5488 132.374 52.5488C133.783 52.5488 134.949 52.0604 135.872 51.1325ZM126.834 55.9185C125.522 55.186 124.501 54.0627 123.724 52.6465C122.946 51.2302 122.557 49.472 122.557 47.4697C122.557 45.4674 122.946 43.7581 123.724 42.293C124.501 40.8767 125.522 39.7534 126.834 39.0209C128.146 38.2883 129.604 37.8976 131.159 37.8976C132.568 37.8976 133.734 38.1906 134.755 38.7278C135.727 39.2651 136.553 40.0465 137.136 41.0232H137.233V38.9232C137.233 38.679 137.427 38.4837 137.67 38.4837H141.558C141.801 38.4837 141.995 38.679 141.995 38.9232V56.0651C141.995 56.3092 141.801 56.5046 141.558 56.5046H137.67C137.427 56.5046 137.233 56.3092 137.233 56.0651V53.9651H137.136C136.553 54.9418 135.727 55.7232 134.755 56.2604C133.783 56.7976 132.568 57.0906 131.159 57.0906C129.555 57.0418 128.146 56.6511 126.834 55.9185ZM158.032 51.1325C158.907 50.2046 159.344 48.9837 159.344 47.4697C159.344 45.9558 158.907 44.7348 158.032 43.8069C157.157 42.879 155.991 42.3906 154.533 42.3906C153.075 42.3906 151.909 42.879 151.034 43.8069C150.159 44.7348 149.673 45.9558 149.673 47.4697C149.673 48.9837 150.111 50.2046 151.034 51.1325C151.909 52.0604 153.075 52.5488 154.533 52.5488C155.991 52.5488 157.157 52.0604 158.032 51.1325ZM152.152 56.2116C151.18 55.6744 150.354 54.893 149.771 53.9162H149.673V56.0162C149.673 56.2604 149.479 56.4558 149.236 56.4558H145.3C145.057 56.4558 144.863 56.2604 144.863 56.0162V29.6441C144.863 29.3999 145.057 29.2046 145.3 29.2046H149.236C149.479 29.2046 149.673 29.3999 149.673 29.6441V41.0232H149.771C150.354 40.0465 151.18 39.2651 152.152 38.7278C153.124 38.1906 154.339 37.8976 155.748 37.8976C157.303 37.8976 158.761 38.2883 160.073 39.0209C161.385 39.7534 162.405 40.8767 163.183 42.293C163.961 43.7092 164.349 45.4674 164.349 47.4697C164.349 49.472 163.961 51.1813 163.183 52.6465C162.405 54.0627 161.385 55.186 160.073 55.9185C158.761 56.6511 157.303 57.0418 155.748 57.0418C154.339 57.0418 153.172 56.7488 152.152 56.2116ZM170.958 56.4558H167.022C166.779 56.4558 166.585 56.2604 166.585 56.0162V29.6441C166.585 29.3999 166.779 29.2046 167.022 29.2046H170.958C171.201 29.2046 171.396 29.3999 171.396 29.6441V56.0651C171.347 56.2604 171.201 56.4558 170.958 56.4558ZM180.191 42.6348C179.56 43.1232 179.122 43.8558 178.879 44.8325C178.831 45.0767 179.025 45.3697 179.317 45.3697H186.752C186.995 45.3697 187.238 45.1255 187.189 44.8813C187.043 43.9534 186.655 43.2697 186.023 42.6837C185.294 42.0488 184.322 41.7069 183.156 41.7069C181.941 41.7558 180.969 42.0488 180.191 42.6348ZM189.716 40.3883C191.222 42.0488 192 44.4418 192 47.4697V47.9581C192 48.2023 191.806 48.3976 191.563 48.3976H179.122C178.879 48.3976 178.636 48.6418 178.685 48.886C178.879 50.0092 179.365 50.9371 180.191 51.572C181.115 52.3534 182.281 52.7441 183.642 52.7441C185.44 52.7441 187.092 52.0604 188.647 50.6441C188.841 50.4488 189.133 50.4976 189.279 50.7418L191.174 53.4767C191.32 53.672 191.271 53.9162 191.125 54.0627C190.202 54.893 189.181 55.5767 188.015 56.1139C186.752 56.6999 185.294 57.0418 183.642 57.0418C181.698 57.0418 179.997 56.6511 178.588 55.8697C177.13 55.0883 176.012 53.9651 175.235 52.4999C174.457 51.0837 174.02 49.3744 174.02 47.5185C174.02 45.6139 174.408 43.9534 175.186 42.4883C175.964 41.0232 177.033 39.8999 178.442 39.1185C179.851 38.3371 181.455 37.8976 183.301 37.8976C186.071 37.8976 188.21 38.7278 189.716 40.3883ZM93.4487 32.1348C93.4487 33.7465 92.1367 35.0651 90.533 35.0651C88.9294 35.0651 87.6173 33.7465 87.6173 32.1348C87.6173 30.5232 88.9294 29.2046 90.533 29.2046C92.1367 29.2046 93.4487 30.5232 93.4487 32.1348Z"></path>
<path fill="#26251E" d="M22.3052 21.5372L3.69324 29.2535C2.67274 29.693 2.67274 31.1581 3.69324 31.5977L22.4024 39.0698C24.0547 39.7047 25.8527 39.7047 27.5049 39.0698L46.2141 31.5977C47.2346 31.1581 47.2832 29.693 46.2141 29.2535L27.6021 21.5372C25.9013 20.8047 24.0061 20.8047 22.3052 21.5372Z"></path>
<path fill="#26251E" d="M26.6302 43.1232V61.7302C26.6302 62.6092 27.5049 63.2441 28.3311 62.9023L49.1784 54.7953C49.6644 54.5999 49.956 54.1604 49.956 53.6232V35.0162C49.956 34.1371 49.0812 33.5023 48.2551 33.8441L27.4077 41.9511C26.9218 42.1464 26.6302 42.586 26.6302 43.1232Z"></path>
<path fill="#26251E" d="M0 35.0651V52.5488C0 53.4767 1.0691 54.0628 1.89522 53.6721L14.9188 47.3721L15.5505 47.0791L0.388762 34.2349C0.194381 34.4302 0 34.7232 0 35.0651Z"></path>
<path fill="#26251E" d="M21.6735 41.8047L1.84662 33.893C1.45786 33.7465 1.0205 33.7954 0.72893 33.9907C0.63174 34.0396 0.485954 34.1372 0.388763 34.2349L15.5505 47.0791L21.7221 44.1C22.7426 43.6117 22.6454 42.1954 21.6735 41.8047Z"></path>
</g>
<defs>
<clipPath id="clip0_39_2214">
<rect transform="translate(0 21)" fill="white" height="42" width="192"></rect>
</clipPath>
</defs>
</svg>
