<svg xmlns="http://www.w3.org/2000/svg" fill="none" viewBox="0 0 178 84" height="84" width="178">
<g clip-path="url(#clip0_1_117)">
<g clip-path="url(#clip1_1_117)">
<path fill="#26251E" d="M61.5965 44.3383C60.0806 43.5006 59.2827 42.8224 59.2827 41.865C59.2827 40.6283 60.3598 39.8703 62.0752 39.8703C64.0699 39.8703 65.8251 40.7081 65.8251 40.7081L67.2214 36.4396C67.2214 36.4396 65.9448 35.4423 62.155 35.4423C56.8892 35.4423 53.2191 38.4741 53.2191 42.7027C53.2191 45.0963 54.9344 46.9313 57.2083 48.2478C59.0434 49.285 59.6817 50.043 59.6817 51.1201C59.6817 52.277 58.7641 53.1945 57.0488 53.1945C54.4956 53.1945 52.1021 51.878 52.1021 51.878L50.626 56.1465C50.626 56.1465 52.86 57.6226 56.57 57.6226C61.9954 57.6226 65.865 54.9498 65.865 50.1626C65.9448 47.5297 63.9502 45.6947 61.5965 44.3383Z"></path>
<path fill="#26251E" d="M83.217 35.3616C80.5442 35.3616 78.4698 36.6382 76.8342 38.553L76.7544 38.5131L79.0682 26.3857H73.0045L67.1403 57.2227H73.164L75.1587 46.6911C75.9565 42.7018 77.9911 40.2684 79.9059 40.2684C81.2623 40.2684 81.7809 41.1859 81.7809 42.5024C81.7809 43.3401 81.7011 44.3374 81.5016 45.1752L79.2277 57.2626H85.2515L87.6052 44.8161C87.8844 43.4997 88.044 41.9439 88.044 40.8668C88.1238 37.3961 86.3685 35.3616 83.217 35.3616Z"></path>
<path fill="#26251E" d="M101.766 35.3617C94.5057 35.3617 89.6787 41.9041 89.6787 49.2044C89.6787 53.8719 92.551 57.6617 97.9764 57.6617C105.117 57.6617 109.904 51.2789 109.904 43.8189C109.944 39.4706 107.431 35.3617 101.766 35.3617ZM98.8141 52.9942C96.7397 52.9942 95.902 51.239 95.902 49.0449C95.902 45.5742 97.6971 39.9493 100.968 39.9493C103.123 39.9493 103.801 41.7844 103.801 43.5796C103.801 47.3295 102.006 52.9942 98.8141 52.9942Z"></path>
<path fill="#26251E" d="M125.385 35.3617C121.316 35.3617 119.002 38.952 119.002 38.952H118.923L119.282 35.7207H113.936C113.657 37.9148 113.178 41.2259 112.699 43.7391L108.511 65.7599H114.534L116.21 56.8239H116.33C116.33 56.8239 117.566 57.6218 119.88 57.6218C126.981 57.6218 131.608 50.3613 131.608 43.0211C131.608 38.9919 129.813 35.3617 125.385 35.3617ZM119.641 53.1139C118.085 53.1139 117.167 52.2363 117.167 52.2363L118.165 46.6114C118.883 42.8615 120.837 40.3483 122.912 40.3483C124.747 40.3483 125.305 42.0637 125.305 43.6594C125.305 47.5289 122.992 53.1139 119.641 53.1139Z"></path>
<path fill="#26251E" d="M140.225 26.7048C138.31 26.7048 136.754 28.2208 136.754 30.2154C136.754 32.0106 137.871 33.2472 139.587 33.2472H139.667C141.541 33.2472 143.177 31.9707 143.217 29.7367C143.257 27.9415 142.06 26.7048 140.225 26.7048Z"></path>
<path fill="#26251E" d="M131.768 57.2207H137.831L141.94 35.8383H135.837L131.768 57.2207Z"></path>
<path fill="#26251E" d="M157.256 35.7997H153.067L153.266 34.8024C153.625 32.7279 154.822 30.8929 156.857 30.8929C157.934 30.8929 158.771 31.212 158.771 31.212L159.968 26.5047C159.968 26.5047 158.931 25.9861 156.697 25.9861C154.543 25.9861 152.429 26.5845 150.793 27.9807C148.719 29.736 147.761 32.2492 147.282 34.8024L147.123 35.7997H144.33L143.453 40.3474H146.245L143.054 57.222H149.078L152.269 40.3474H156.418L157.256 35.7997Z"></path>
<path fill="#26251E" d="M171.779 35.8383C171.779 35.8383 167.989 45.3327 166.314 50.5187H166.234C166.114 48.8433 164.758 35.8383 164.758 35.8383H158.415L162.045 55.4654C162.125 55.9043 162.085 56.1835 161.926 56.4628C161.207 57.8191 160.051 59.1356 158.654 60.093C157.537 60.9307 156.261 61.4493 155.263 61.8084L156.939 66.9146C158.176 66.6354 160.689 65.6381 162.843 63.6434C165.596 61.0504 168.149 57.101 170.742 51.6756L178.122 35.8383H171.779Z"></path>
<path fill="#26251E" d="M29.8432 21.961C29.8432 21.961 29.2847 22.1205 28.3672 22.3998C28.2076 21.8812 27.9683 21.2828 27.6492 20.6445C26.6119 18.6499 25.0561 17.5728 23.2211 17.5728C23.1014 17.5728 22.9817 17.5728 22.8221 17.6127C22.7823 17.5329 22.7025 17.493 22.6626 17.4132C21.8647 16.5356 20.8275 16.1367 19.5908 16.1765C17.1973 16.2563 14.8037 17.9717 12.8889 21.0434C11.5325 23.1976 10.4953 25.9103 10.2161 28.0247C7.46348 28.8624 5.54863 29.4608 5.50874 29.5007C4.11249 29.9395 4.0726 29.9794 3.91303 31.2959C3.79335 32.2932 0.12323 60.3776 0.12323 60.3776L30.2821 65.6035V21.9211C30.0427 21.9211 29.923 21.961 29.8432 21.961ZM22.862 24.1152C21.2663 24.5939 19.5111 25.1524 17.7957 25.671C18.2744 23.796 19.2318 21.9211 20.3488 20.6844C20.7876 20.2456 21.386 19.727 22.0642 19.4078C22.7424 20.844 22.9019 22.7987 22.862 24.1152ZM19.5908 17.8121C20.1493 17.8121 20.628 17.9318 21.027 18.1712C20.3887 18.4903 19.7504 19.0089 19.152 19.6073C17.6361 21.2429 16.4792 23.796 16.0005 26.2295C14.5644 26.6683 13.1282 27.1071 11.8118 27.5061C12.6894 23.6764 15.9207 17.8919 19.5908 17.8121ZM14.9633 39.7531C15.1229 42.3062 21.8647 42.8647 22.2636 48.8885C22.5429 53.6357 19.7504 56.867 15.7213 57.1064C10.8544 57.4255 8.18154 54.5533 8.18154 54.5533L9.21875 50.1651C9.21875 50.1651 11.8916 52.1996 14.0458 52.04C15.442 51.9602 15.9606 50.8034 15.9207 50.0055C15.7213 46.6545 10.2161 46.854 9.85703 41.3488C9.53789 36.7213 12.5697 32.0538 19.2717 31.615C21.8647 31.4554 23.1812 32.0937 23.1812 32.0937L21.6653 37.8382C21.6653 37.8382 19.9499 37.0404 17.9153 37.2C14.9633 37.3994 14.9234 39.2744 14.9633 39.7531ZM24.4577 23.6365C24.4577 22.4397 24.2982 20.7243 23.7397 19.2882C25.5747 19.6472 26.4524 21.6817 26.8513 22.9184C26.1332 23.1179 25.3354 23.3572 24.4577 23.6365Z"></path>
<path fill="#26251E" d="M31.1978 65.5236L43.724 62.412C43.724 62.412 38.3385 25.99 38.2986 25.7506C38.2588 25.5113 38.0593 25.3517 37.8598 25.3517C37.6604 25.3517 34.1498 25.2719 34.1498 25.2719C34.1498 25.2719 31.9956 23.1975 31.1978 22.3997V65.5236Z"></path>
</g>
</g>
<defs>
<clipPath id="clip0_1_117">
<rect fill="white" height="84" width="178"></rect>
</clipPath>
<clipPath id="clip1_1_117">
<rect transform="translate(0 16.0547)" fill="white" height="50.8631" width="178.041"></rect>
</clipPath>
</defs>
</svg>
