<svg xmlns="http://www.w3.org/2000/svg" fill="none" viewBox="0 0 230 84" height="84" width="230">
<g clip-path="url(#clip0_1680_49083)">
<path fill="#EDECEC" d="M28.4922 25C28.0578 25.772 27.6675 26.5706 27.3129 27.3869C23.9431 26.8811 20.5113 26.8811 17.1326 27.3869C16.7869 26.5706 16.3879 25.772 15.9533 25C12.7876 25.5413 9.70152 26.4907 6.77522 27.8306C0.975713 36.4287 -0.59385 44.8051 0.186508 53.0661C3.58288 55.5773 7.38711 57.4939 11.4397 58.7184C12.353 57.4939 13.16 56.1895 13.8517 54.8319C12.5392 54.3439 11.2711 53.7317 10.0563 53.0218C10.3755 52.791 10.6859 52.5514 10.9874 52.3208C18.1082 55.6748 26.3551 55.6748 33.4847 52.3208C33.7863 52.5693 34.0966 52.8089 34.4158 53.0218C33.201 53.7405 31.9329 54.3439 30.6116 54.8408C31.3033 56.1984 32.1102 57.5027 33.0237 58.7273C37.0762 57.5027 40.8804 55.595 44.2768 53.0839C45.199 43.5007 42.6983 35.1954 37.6703 27.8395C34.7529 26.4996 31.6669 25.5501 28.5011 25.0177L28.4922 25ZM14.8448 47.9818C12.6545 47.9818 10.8366 45.9941 10.8366 43.5363C10.8366 41.0784 12.5835 39.0819 14.8359 39.0819C17.0883 39.0819 18.8796 41.0872 18.8442 43.5363C18.8087 45.9852 17.0796 47.9818 14.8448 47.9818ZM29.6185 47.9818C27.4193 47.9818 25.6191 45.9941 25.6191 43.5363C25.6191 41.0784 27.3661 39.0819 29.6185 39.0819C31.8708 39.0819 33.6532 41.0872 33.6177 43.5363C33.5823 45.9852 31.8531 47.9818 29.6185 47.9818ZM87.2788 31.158C85.0707 30.1642 82.3749 29.6674 79.1826 29.6674H65.9519V53.4388H78.2337C81.6921 53.4388 84.5919 52.9064 86.9329 51.8416C89.07 50.9543 90.888 49.4459 92.1648 47.5115C93.3088 45.6836 93.903 43.5629 93.8764 41.4066C93.9118 39.2593 93.3443 37.1475 92.227 35.3108C91.0387 33.4563 89.3095 32.0011 87.2788 31.1492V31.158ZM83.0578 45.7812C81.9049 46.8548 80.2555 47.3961 78.1007 47.3961H74.4383V35.7189H78.5796C80.6546 35.7189 82.2153 36.2424 83.2528 37.2629C84.3081 38.3631 84.8667 39.8539 84.7958 41.3889C84.8756 43.0394 84.2461 44.6365 83.0666 45.7901L83.0578 45.7812ZM128.08 43.1547C129.161 44.1219 129.702 45.5416 129.711 47.4138C129.746 49.4104 128.718 51.2826 127.006 52.3208C125.224 53.5187 122.67 54.1221 119.353 54.1131C117.447 54.1131 115.549 53.8736 113.705 53.4033C111.957 52.9686 110.29 52.2675 108.748 51.3358V45.7013C110.095 46.6774 111.603 47.3961 113.208 47.822C114.964 48.3544 116.79 48.6384 118.626 48.6473C119.256 48.6827 119.894 48.5674 120.48 48.3278C120.897 48.1149 121.1 47.8397 121.1 47.5647C121.11 47.2453 120.984 46.9436 120.763 46.7129C120.373 46.4201 119.92 46.216 119.442 46.1362L115.371 45.2221C113.039 44.6809 111.382 43.9267 110.406 42.9683C109.412 41.9657 108.88 40.5903 108.951 39.1794C108.933 37.9195 109.394 36.6949 110.237 35.7544C111.24 34.6896 112.507 33.9176 113.9 33.5006C115.7 32.9327 117.58 32.6664 119.469 32.702C121.234 32.6843 122.989 32.8883 124.692 33.3143C126.075 33.6426 127.396 34.1661 128.629 34.8759V40.2088C127.477 39.5433 126.234 39.0286 124.949 38.7003C123.547 38.3277 122.103 38.1324 120.657 38.1324C118.529 38.1324 117.465 38.4962 117.465 39.215C117.465 39.5433 117.651 39.8449 117.952 39.978C118.537 40.2265 119.14 40.404 119.761 40.5015L123.157 41.1138C125.357 41.5043 127.006 42.1786 128.088 43.1547H128.08ZM150.603 47.0767C151.596 46.7928 152.545 46.3845 153.431 45.87V51.8859C150.807 53.4122 147.81 54.193 144.777 54.131C142.347 54.193 139.926 53.705 137.718 52.6935C135.901 51.8593 134.375 50.5106 133.32 48.8158C132.336 47.1476 131.831 45.2488 131.866 43.3144C131.839 41.38 132.371 39.4812 133.391 37.8485C134.481 36.1803 136.043 34.867 137.869 34.0684C140.095 33.1013 142.497 32.631 144.928 32.6931C148.324 32.6931 151.135 33.403 153.378 34.8316V41.0518C152.527 40.4749 151.597 40.0313 150.612 39.7297C149.512 39.3836 148.368 39.215 147.215 39.2239C145.114 39.2239 143.464 39.6054 142.276 40.3773C140.609 41.3091 140.007 43.4209 140.937 45.098C141.238 45.6392 141.691 46.0917 142.223 46.4112C143.376 47.1921 145.052 47.5825 147.243 47.5825C148.377 47.5825 149.503 47.4227 150.586 47.0944L150.603 47.0767ZM175.726 34.0596C171.264 32.2494 166.272 32.2494 161.812 34.0596C159.995 34.8582 158.451 36.1625 157.351 37.813C156.313 39.4456 155.773 41.3357 155.809 43.2701C155.781 45.2221 156.323 47.1476 157.351 48.807C158.442 50.5018 160.003 51.8505 161.839 52.6845C166.272 54.5746 171.282 54.5746 175.716 52.6758C177.543 51.8416 179.095 50.4929 180.177 48.7981C181.197 47.1299 181.729 45.2132 181.702 43.2611C181.737 41.3268 181.205 39.4279 180.177 37.7953C179.087 36.1537 177.543 34.8493 175.734 34.0596H175.726ZM172.143 46.6597C171.23 47.5203 170.005 47.9728 168.746 47.893C167.497 47.9551 166.272 47.5115 165.35 46.6597C164.508 45.7812 164.055 44.6011 164.118 43.3765C164.055 42.1697 164.508 40.9985 165.35 40.1378C166.272 39.2948 167.497 38.8689 168.746 38.931C169.997 38.86 171.221 39.2948 172.143 40.1378C172.994 40.9985 173.447 42.1697 173.384 43.3765C173.437 44.5922 172.994 45.7812 172.143 46.6597ZM199.003 33.119C200.084 33.0924 201.158 33.3675 202.089 33.9353V41.2824C201.078 40.6791 199.907 40.3863 198.728 40.4306C196.92 40.4306 195.527 40.9807 194.552 42.0811C193.585 43.1813 193.098 44.885 193.098 47.1921V53.4388H184.779V33.5715H192.919V39.8805C193.372 37.5734 194.099 35.8697 195.11 34.7695C196.103 33.678 197.513 33.0747 198.985 33.119H199.003ZM221.402 28.9842V37.8396C220.046 34.3968 217.385 32.6754 213.431 32.6754C211.622 32.6487 209.84 33.1279 208.287 34.0684C206.78 35.009 205.565 36.3489 204.794 37.9461C203.951 39.6941 203.534 41.6108 203.597 43.5451C203.561 45.4174 203.951 47.263 204.731 48.9667C205.441 50.5018 206.576 51.815 207.995 52.7378C209.467 53.6695 211.179 54.1487 212.917 54.1131C214.769 54.1664 216.597 53.7138 218.201 52.791C219.656 51.8948 220.782 50.555 221.412 48.9667V53.4299H229.73V28.9842H221.412H221.402ZM220.179 46.5443C219.257 47.3961 218.033 47.831 216.783 47.7599C215.559 47.822 214.361 47.3784 213.457 46.5443C212.606 45.719 212.145 44.5656 212.19 43.3765C212.145 42.1963 212.598 41.0606 213.449 40.2355C215.409 38.6382 218.22 38.6382 220.179 40.2355C221.03 41.0339 221.491 42.1609 221.457 43.3322C221.501 44.53 221.039 45.7013 220.179 46.5443ZM105.032 31.9655C105.032 34.0241 103.179 35.6923 100.891 35.6923C98.6028 35.6923 96.7495 34.0241 96.7495 31.9655C96.7495 29.907 98.6028 28.2388 100.891 28.2388C103.179 28.2388 105.032 29.907 105.032 31.9655ZM105.032 38.2566V53.5453H96.7406V38.2566C99.3921 39.3747 102.38 39.3747 105.032 38.2566Z"></path>
</g>
<defs>
<clipPath id="clip0_1680_49083">
<rect fill="white" height="84" width="230"></rect>
</clipPath>
</defs>
</svg>
